<mxfile host="Electron" modified="2023-12-19T11:26:35.201Z" agent="Mozilla/5.0 (X11; Linux x86_64) AppleWebKit/537.36 (KHTML, like Gecko) draw.io/22.1.2 Chrome/114.0.5735.289 Electron/25.9.4 Safari/537.36" etag="LWlymbtlmWmW8w-tUF20" version="22.1.2" type="device">
  <diagram name="Page-1" id="w1q-gpdIMpy7kV39_NgH">
    <mxGraphModel dx="683" dy="415" grid="1" gridSize="10" guides="1" tooltips="1" connect="1" arrows="1" fold="1" page="1" pageScale="1" pageWidth="827" pageHeight="1169" math="0" shadow="0">
      <root>
        <mxCell id="0" />
        <mxCell id="1" parent="0" />
        <mxCell id="XhCxBN9-n2aiEUbVuih6-1" value="" style="endArrow=none;html=1;rounded=0;strokeColor=default;endFill=0;" parent="1" edge="1">
          <mxGeometry width="50" height="50" relative="1" as="geometry">
            <mxPoint x="44" y="110" as="sourcePoint" />
            <mxPoint x="334" y="110" as="targetPoint" />
          </mxGeometry>
        </mxCell>
        <mxCell id="XhCxBN9-n2aiEUbVuih6-10" value="" style="group" parent="1" vertex="1" connectable="0">
          <mxGeometry x="64" y="20" width="90" height="90" as="geometry" />
        </mxCell>
        <mxCell id="XhCxBN9-n2aiEUbVuih6-6" value="First W3C WoT Workshop" style="text;html=1;strokeColor=none;fillColor=none;align=center;verticalAlign=middle;whiteSpace=wrap;rounded=0;" parent="XhCxBN9-n2aiEUbVuih6-10" vertex="1">
          <mxGeometry width="90" height="30" as="geometry" />
        </mxCell>
        <mxCell id="XhCxBN9-n2aiEUbVuih6-7" value="" style="endArrow=none;html=1;rounded=0;entryX=0.5;entryY=1;entryDx=0;entryDy=0;startArrow=none;" parent="XhCxBN9-n2aiEUbVuih6-10" source="XhCxBN9-n2aiEUbVuih6-8" target="XhCxBN9-n2aiEUbVuih6-6" edge="1">
          <mxGeometry width="50" height="50" relative="1" as="geometry">
            <mxPoint x="45" y="90" as="sourcePoint" />
            <mxPoint x="55" y="50" as="targetPoint" />
          </mxGeometry>
        </mxCell>
        <mxCell id="XhCxBN9-n2aiEUbVuih6-9" value="" style="endArrow=none;html=1;rounded=0;entryX=0.5;entryY=1;entryDx=0;entryDy=0;" parent="XhCxBN9-n2aiEUbVuih6-10" target="XhCxBN9-n2aiEUbVuih6-8" edge="1">
          <mxGeometry width="50" height="50" relative="1" as="geometry">
            <mxPoint x="45" y="90" as="sourcePoint" />
            <mxPoint x="45" y="30" as="targetPoint" />
          </mxGeometry>
        </mxCell>
        <mxCell id="XhCxBN9-n2aiEUbVuih6-8" value="June 2014" style="text;html=1;strokeColor=none;fillColor=none;align=center;verticalAlign=middle;whiteSpace=wrap;rounded=0;" parent="XhCxBN9-n2aiEUbVuih6-10" vertex="1">
          <mxGeometry x="15" y="50" width="60" height="30" as="geometry" />
        </mxCell>
        <mxCell id="XhCxBN9-n2aiEUbVuih6-11" value="" style="group" parent="1" vertex="1" connectable="0">
          <mxGeometry x="24" y="110" width="80" height="100" as="geometry" />
        </mxCell>
        <mxCell id="XhCxBN9-n2aiEUbVuih6-2" value="" style="endArrow=none;html=1;rounded=0;startArrow=none;" parent="XhCxBN9-n2aiEUbVuih6-11" source="XhCxBN9-n2aiEUbVuih6-4" edge="1">
          <mxGeometry width="50" height="50" relative="1" as="geometry">
            <mxPoint x="40" y="70" as="sourcePoint" />
            <mxPoint x="40" as="targetPoint" />
          </mxGeometry>
        </mxCell>
        <mxCell id="XhCxBN9-n2aiEUbVuih6-3" value="Creation of the WoT CG" style="text;html=1;strokeColor=none;fillColor=none;align=center;verticalAlign=middle;whiteSpace=wrap;rounded=0;" parent="XhCxBN9-n2aiEUbVuih6-11" vertex="1">
          <mxGeometry y="70" width="80" height="30" as="geometry" />
        </mxCell>
        <mxCell id="XhCxBN9-n2aiEUbVuih6-5" value="" style="endArrow=none;html=1;rounded=0;" parent="XhCxBN9-n2aiEUbVuih6-11" target="XhCxBN9-n2aiEUbVuih6-4" edge="1">
          <mxGeometry width="50" height="50" relative="1" as="geometry">
            <mxPoint x="40" y="70" as="sourcePoint" />
            <mxPoint x="40" as="targetPoint" />
          </mxGeometry>
        </mxCell>
        <mxCell id="XhCxBN9-n2aiEUbVuih6-4" value="July 2013" style="text;html=1;strokeColor=none;fillColor=none;align=center;verticalAlign=middle;whiteSpace=wrap;rounded=0;" parent="XhCxBN9-n2aiEUbVuih6-11" vertex="1">
          <mxGeometry x="10" y="10" width="60" height="30" as="geometry" />
        </mxCell>
        <mxCell id="XhCxBN9-n2aiEUbVuih6-12" value="" style="group" parent="1" vertex="1" connectable="0">
          <mxGeometry x="114" y="110" width="100" height="100" as="geometry" />
        </mxCell>
        <mxCell id="XhCxBN9-n2aiEUbVuih6-13" value="" style="endArrow=none;html=1;rounded=0;startArrow=none;" parent="XhCxBN9-n2aiEUbVuih6-12" source="XhCxBN9-n2aiEUbVuih6-16" edge="1">
          <mxGeometry width="50" height="50" relative="1" as="geometry">
            <mxPoint x="40" y="70" as="sourcePoint" />
            <mxPoint x="40" as="targetPoint" />
          </mxGeometry>
        </mxCell>
        <mxCell id="XhCxBN9-n2aiEUbVuih6-14" value="TPAC and Founding of the IG&amp;nbsp;" style="text;html=1;strokeColor=none;fillColor=none;align=center;verticalAlign=middle;whiteSpace=wrap;rounded=0;" parent="XhCxBN9-n2aiEUbVuih6-12" vertex="1">
          <mxGeometry y="78" width="80" height="30" as="geometry" />
        </mxCell>
        <mxCell id="XhCxBN9-n2aiEUbVuih6-15" value="" style="endArrow=none;html=1;rounded=0;" parent="XhCxBN9-n2aiEUbVuih6-12" target="XhCxBN9-n2aiEUbVuih6-16" edge="1">
          <mxGeometry width="50" height="50" relative="1" as="geometry">
            <mxPoint x="40" y="70" as="sourcePoint" />
            <mxPoint x="40" as="targetPoint" />
          </mxGeometry>
        </mxCell>
        <mxCell id="XhCxBN9-n2aiEUbVuih6-16" value="November 2014" style="text;html=1;strokeColor=none;fillColor=none;align=center;verticalAlign=middle;whiteSpace=wrap;rounded=0;" parent="XhCxBN9-n2aiEUbVuih6-12" vertex="1">
          <mxGeometry x="-5" y="10" width="90" height="30" as="geometry" />
        </mxCell>
        <mxCell id="XhCxBN9-n2aiEUbVuih6-17" value="" style="group" parent="1" vertex="1" connectable="0">
          <mxGeometry x="164" y="20" width="90" height="90" as="geometry" />
        </mxCell>
        <mxCell id="XhCxBN9-n2aiEUbVuih6-18" value="First Face to Face Meeting" style="text;html=1;strokeColor=none;fillColor=none;align=center;verticalAlign=middle;whiteSpace=wrap;rounded=0;" parent="XhCxBN9-n2aiEUbVuih6-17" vertex="1">
          <mxGeometry width="90" height="30" as="geometry" />
        </mxCell>
        <mxCell id="XhCxBN9-n2aiEUbVuih6-19" value="" style="endArrow=none;html=1;rounded=0;entryX=0.5;entryY=1;entryDx=0;entryDy=0;startArrow=none;" parent="XhCxBN9-n2aiEUbVuih6-17" source="XhCxBN9-n2aiEUbVuih6-21" target="XhCxBN9-n2aiEUbVuih6-18" edge="1">
          <mxGeometry width="50" height="50" relative="1" as="geometry">
            <mxPoint x="45" y="90" as="sourcePoint" />
            <mxPoint x="55" y="50" as="targetPoint" />
          </mxGeometry>
        </mxCell>
        <mxCell id="XhCxBN9-n2aiEUbVuih6-20" value="" style="endArrow=none;html=1;rounded=0;entryX=0.5;entryY=1;entryDx=0;entryDy=0;" parent="XhCxBN9-n2aiEUbVuih6-17" target="XhCxBN9-n2aiEUbVuih6-21" edge="1">
          <mxGeometry width="50" height="50" relative="1" as="geometry">
            <mxPoint x="45" y="90" as="sourcePoint" />
            <mxPoint x="45" y="30" as="targetPoint" />
          </mxGeometry>
        </mxCell>
        <mxCell id="XhCxBN9-n2aiEUbVuih6-21" value="April 2015" style="text;html=1;strokeColor=none;fillColor=none;align=center;verticalAlign=middle;whiteSpace=wrap;rounded=0;" parent="XhCxBN9-n2aiEUbVuih6-17" vertex="1">
          <mxGeometry x="15" y="50" width="60" height="30" as="geometry" />
        </mxCell>
        <mxCell id="XhCxBN9-n2aiEUbVuih6-22" value="" style="group" parent="1" vertex="1" connectable="0">
          <mxGeometry x="214" y="110" width="100" height="100" as="geometry" />
        </mxCell>
        <mxCell id="XhCxBN9-n2aiEUbVuih6-23" value="" style="endArrow=none;html=1;rounded=0;startArrow=none;" parent="XhCxBN9-n2aiEUbVuih6-22" source="XhCxBN9-n2aiEUbVuih6-26" edge="1">
          <mxGeometry width="50" height="50" relative="1" as="geometry">
            <mxPoint x="40" y="70" as="sourcePoint" />
            <mxPoint x="40" as="targetPoint" />
          </mxGeometry>
        </mxCell>
        <mxCell id="XhCxBN9-n2aiEUbVuih6-24" value="First WoT Plugfest" style="text;html=1;strokeColor=none;fillColor=none;align=center;verticalAlign=middle;whiteSpace=wrap;rounded=0;" parent="XhCxBN9-n2aiEUbVuih6-22" vertex="1">
          <mxGeometry y="70" width="80" height="30" as="geometry" />
        </mxCell>
        <mxCell id="XhCxBN9-n2aiEUbVuih6-25" value="" style="endArrow=none;html=1;rounded=0;" parent="XhCxBN9-n2aiEUbVuih6-22" target="XhCxBN9-n2aiEUbVuih6-26" edge="1">
          <mxGeometry width="50" height="50" relative="1" as="geometry">
            <mxPoint x="40" y="70" as="sourcePoint" />
            <mxPoint x="40" as="targetPoint" />
          </mxGeometry>
        </mxCell>
        <mxCell id="XhCxBN9-n2aiEUbVuih6-26" value="October 2015" style="text;html=1;strokeColor=none;fillColor=none;align=center;verticalAlign=middle;whiteSpace=wrap;rounded=0;" parent="XhCxBN9-n2aiEUbVuih6-22" vertex="1">
          <mxGeometry x="-5" y="10" width="90" height="30" as="geometry" />
        </mxCell>
        <mxCell id="XhCxBN9-n2aiEUbVuih6-27" value="" style="group" parent="1" vertex="1" connectable="0">
          <mxGeometry x="264" y="20" width="110" height="90" as="geometry" />
        </mxCell>
        <mxCell id="XhCxBN9-n2aiEUbVuih6-28" value="Founding of &lt;br&gt;the WG" style="text;html=1;strokeColor=none;fillColor=none;align=center;verticalAlign=middle;whiteSpace=wrap;rounded=0;" parent="XhCxBN9-n2aiEUbVuih6-27" vertex="1">
          <mxGeometry width="90" height="30" as="geometry" />
        </mxCell>
        <mxCell id="XhCxBN9-n2aiEUbVuih6-29" value="" style="endArrow=none;html=1;rounded=0;entryX=0.5;entryY=1;entryDx=0;entryDy=0;startArrow=none;" parent="XhCxBN9-n2aiEUbVuih6-27" source="XhCxBN9-n2aiEUbVuih6-31" target="XhCxBN9-n2aiEUbVuih6-28" edge="1">
          <mxGeometry width="50" height="50" relative="1" as="geometry">
            <mxPoint x="45" y="90" as="sourcePoint" />
            <mxPoint x="55" y="50" as="targetPoint" />
          </mxGeometry>
        </mxCell>
        <mxCell id="XhCxBN9-n2aiEUbVuih6-30" value="" style="endArrow=none;html=1;rounded=0;entryX=0.5;entryY=1;entryDx=0;entryDy=0;" parent="XhCxBN9-n2aiEUbVuih6-27" target="XhCxBN9-n2aiEUbVuih6-31" edge="1">
          <mxGeometry width="50" height="50" relative="1" as="geometry">
            <mxPoint x="45" y="90" as="sourcePoint" />
            <mxPoint x="45" y="30" as="targetPoint" />
          </mxGeometry>
        </mxCell>
        <mxCell id="XhCxBN9-n2aiEUbVuih6-31" value="December 2016" style="text;html=1;strokeColor=none;fillColor=none;align=center;verticalAlign=middle;whiteSpace=wrap;rounded=0;" parent="XhCxBN9-n2aiEUbVuih6-27" vertex="1">
          <mxGeometry x="-2.5" y="50" width="95" height="30" as="geometry" />
        </mxCell>
        <mxCell id="XhCxBN9-n2aiEUbVuih6-37" value="" style="group" parent="1" vertex="1" connectable="0">
          <mxGeometry x="337" y="110" width="100" height="100" as="geometry" />
        </mxCell>
        <mxCell id="XhCxBN9-n2aiEUbVuih6-39" value="Various Plugfest and F2F Meetings" style="text;html=1;strokeColor=none;fillColor=none;align=center;verticalAlign=middle;whiteSpace=wrap;rounded=0;" parent="XhCxBN9-n2aiEUbVuih6-37" vertex="1">
          <mxGeometry x="-12" y="70" width="105" height="30" as="geometry" />
        </mxCell>
        <mxCell id="XhCxBN9-n2aiEUbVuih6-40" value="" style="endArrow=none;html=1;rounded=0;" parent="XhCxBN9-n2aiEUbVuih6-37" edge="1">
          <mxGeometry width="50" height="50" relative="1" as="geometry">
            <mxPoint x="40" y="70" as="sourcePoint" />
            <mxPoint x="40" as="targetPoint" />
          </mxGeometry>
        </mxCell>
        <mxCell id="XhCxBN9-n2aiEUbVuih6-42" value="" style="endArrow=none;html=1;rounded=0;strokeColor=default;dashed=1;" parent="1" edge="1">
          <mxGeometry width="50" height="50" relative="1" as="geometry">
            <mxPoint x="337" y="110" as="sourcePoint" />
            <mxPoint x="434" y="110" as="targetPoint" />
          </mxGeometry>
        </mxCell>
        <mxCell id="XhCxBN9-n2aiEUbVuih6-43" value="" style="group" parent="1" vertex="1" connectable="0">
          <mxGeometry x="394" y="20" width="110" height="90" as="geometry" />
        </mxCell>
        <mxCell id="XhCxBN9-n2aiEUbVuih6-44" value="Second W3C WoT Workshop" style="text;html=1;strokeColor=none;fillColor=none;align=center;verticalAlign=middle;whiteSpace=wrap;rounded=0;" parent="XhCxBN9-n2aiEUbVuih6-43" vertex="1">
          <mxGeometry width="90" height="30" as="geometry" />
        </mxCell>
        <mxCell id="XhCxBN9-n2aiEUbVuih6-45" value="" style="endArrow=none;html=1;rounded=0;entryX=0.5;entryY=1;entryDx=0;entryDy=0;startArrow=none;" parent="XhCxBN9-n2aiEUbVuih6-43" source="XhCxBN9-n2aiEUbVuih6-47" target="XhCxBN9-n2aiEUbVuih6-44" edge="1">
          <mxGeometry width="50" height="50" relative="1" as="geometry">
            <mxPoint x="45" y="90" as="sourcePoint" />
            <mxPoint x="55" y="50" as="targetPoint" />
          </mxGeometry>
        </mxCell>
        <mxCell id="XhCxBN9-n2aiEUbVuih6-46" value="" style="endArrow=none;html=1;rounded=0;entryX=0.5;entryY=1;entryDx=0;entryDy=0;" parent="XhCxBN9-n2aiEUbVuih6-43" target="XhCxBN9-n2aiEUbVuih6-47" edge="1">
          <mxGeometry width="50" height="50" relative="1" as="geometry">
            <mxPoint x="45" y="90" as="sourcePoint" />
            <mxPoint x="45" y="30" as="targetPoint" />
          </mxGeometry>
        </mxCell>
        <mxCell id="XhCxBN9-n2aiEUbVuih6-47" value="June 2019" style="text;html=1;strokeColor=none;fillColor=none;align=center;verticalAlign=middle;whiteSpace=wrap;rounded=0;" parent="XhCxBN9-n2aiEUbVuih6-43" vertex="1">
          <mxGeometry x="-2.5" y="50" width="95" height="30" as="geometry" />
        </mxCell>
        <mxCell id="XhCxBN9-n2aiEUbVuih6-48" value="" style="endArrow=none;html=1;rounded=0;strokeColor=default;endFill=0;" parent="1" edge="1">
          <mxGeometry width="50" height="50" relative="1" as="geometry">
            <mxPoint x="436" y="110" as="sourcePoint" />
            <mxPoint x="584" y="110" as="targetPoint" />
          </mxGeometry>
        </mxCell>
        <mxCell id="XhCxBN9-n2aiEUbVuih6-49" value="" style="group" parent="1" vertex="1" connectable="0">
          <mxGeometry x="454" y="110" width="100" height="100" as="geometry" />
        </mxCell>
        <mxCell id="XhCxBN9-n2aiEUbVuih6-50" value="" style="endArrow=none;html=1;rounded=0;startArrow=none;" parent="XhCxBN9-n2aiEUbVuih6-49" source="XhCxBN9-n2aiEUbVuih6-53" edge="1">
          <mxGeometry width="50" height="50" relative="1" as="geometry">
            <mxPoint x="40" y="70" as="sourcePoint" />
            <mxPoint x="40" as="targetPoint" />
          </mxGeometry>
        </mxCell>
        <mxCell id="XhCxBN9-n2aiEUbVuih6-51" value="New WG Charter" style="text;html=1;strokeColor=none;fillColor=none;align=center;verticalAlign=middle;whiteSpace=wrap;rounded=0;" parent="XhCxBN9-n2aiEUbVuih6-49" vertex="1">
          <mxGeometry y="70" width="80" height="30" as="geometry" />
        </mxCell>
        <mxCell id="XhCxBN9-n2aiEUbVuih6-52" value="" style="endArrow=none;html=1;rounded=0;" parent="XhCxBN9-n2aiEUbVuih6-49" target="XhCxBN9-n2aiEUbVuih6-53" edge="1">
          <mxGeometry width="50" height="50" relative="1" as="geometry">
            <mxPoint x="40" y="70" as="sourcePoint" />
            <mxPoint x="40" as="targetPoint" />
          </mxGeometry>
        </mxCell>
        <mxCell id="XhCxBN9-n2aiEUbVuih6-53" value="February 2020" style="text;html=1;strokeColor=none;fillColor=none;align=center;verticalAlign=middle;whiteSpace=wrap;rounded=0;" parent="XhCxBN9-n2aiEUbVuih6-49" vertex="1">
          <mxGeometry x="-5" y="10" width="90" height="30" as="geometry" />
        </mxCell>
        <mxCell id="XhCxBN9-n2aiEUbVuih6-54" value="" style="group" parent="1" vertex="1" connectable="0">
          <mxGeometry x="514" y="20" width="110" height="90" as="geometry" />
        </mxCell>
        <mxCell id="XhCxBN9-n2aiEUbVuih6-55" value="Publication of 1.0 Recommendations" style="text;html=1;strokeColor=none;fillColor=none;align=center;verticalAlign=middle;whiteSpace=wrap;rounded=0;" parent="XhCxBN9-n2aiEUbVuih6-54" vertex="1">
          <mxGeometry width="90" height="30" as="geometry" />
        </mxCell>
        <mxCell id="XhCxBN9-n2aiEUbVuih6-56" value="" style="endArrow=none;html=1;rounded=0;entryX=0.5;entryY=1;entryDx=0;entryDy=0;startArrow=none;" parent="XhCxBN9-n2aiEUbVuih6-54" source="XhCxBN9-n2aiEUbVuih6-58" target="XhCxBN9-n2aiEUbVuih6-55" edge="1">
          <mxGeometry width="50" height="50" relative="1" as="geometry">
            <mxPoint x="45" y="90" as="sourcePoint" />
            <mxPoint x="55" y="50" as="targetPoint" />
          </mxGeometry>
        </mxCell>
        <mxCell id="XhCxBN9-n2aiEUbVuih6-57" value="" style="endArrow=none;html=1;rounded=0;entryX=0.5;entryY=1;entryDx=0;entryDy=0;" parent="XhCxBN9-n2aiEUbVuih6-54" target="XhCxBN9-n2aiEUbVuih6-58" edge="1">
          <mxGeometry width="50" height="50" relative="1" as="geometry">
            <mxPoint x="45" y="90" as="sourcePoint" />
            <mxPoint x="45" y="30" as="targetPoint" />
          </mxGeometry>
        </mxCell>
        <mxCell id="XhCxBN9-n2aiEUbVuih6-58" value="April 2020" style="text;html=1;strokeColor=none;fillColor=none;align=center;verticalAlign=middle;whiteSpace=wrap;rounded=0;" parent="XhCxBN9-n2aiEUbVuih6-54" vertex="1">
          <mxGeometry x="-2.5" y="50" width="95" height="30" as="geometry" />
        </mxCell>
        <mxCell id="XhCxBN9-n2aiEUbVuih6-64" value="" style="group" parent="1" vertex="1" connectable="0">
          <mxGeometry x="572" y="110" width="100" height="100" as="geometry" />
        </mxCell>
        <mxCell id="XhCxBN9-n2aiEUbVuih6-65" value="Various Plugfest and F2F Meetings" style="text;html=1;strokeColor=none;fillColor=none;align=center;verticalAlign=middle;whiteSpace=wrap;rounded=0;" parent="XhCxBN9-n2aiEUbVuih6-64" vertex="1">
          <mxGeometry x="-12" y="70" width="105" height="30" as="geometry" />
        </mxCell>
        <mxCell id="XhCxBN9-n2aiEUbVuih6-66" value="" style="endArrow=none;html=1;rounded=0;" parent="XhCxBN9-n2aiEUbVuih6-64" edge="1">
          <mxGeometry width="50" height="50" relative="1" as="geometry">
            <mxPoint x="40" y="70" as="sourcePoint" />
            <mxPoint x="40" as="targetPoint" />
          </mxGeometry>
        </mxCell>
        <mxCell id="XhCxBN9-n2aiEUbVuih6-67" value="" style="group" parent="1" vertex="1" connectable="0">
          <mxGeometry x="634" y="20" width="110" height="90" as="geometry" />
        </mxCell>
        <mxCell id="XhCxBN9-n2aiEUbVuih6-68" value="New WG Charter" style="text;html=1;strokeColor=none;fillColor=none;align=center;verticalAlign=middle;whiteSpace=wrap;rounded=0;" parent="XhCxBN9-n2aiEUbVuih6-67" vertex="1">
          <mxGeometry width="90" height="30" as="geometry" />
        </mxCell>
        <mxCell id="XhCxBN9-n2aiEUbVuih6-69" value="" style="endArrow=none;html=1;rounded=0;entryX=0.5;entryY=1;entryDx=0;entryDy=0;startArrow=none;" parent="XhCxBN9-n2aiEUbVuih6-67" source="XhCxBN9-n2aiEUbVuih6-71" target="XhCxBN9-n2aiEUbVuih6-68" edge="1">
          <mxGeometry width="50" height="50" relative="1" as="geometry">
            <mxPoint x="45" y="90" as="sourcePoint" />
            <mxPoint x="55" y="50" as="targetPoint" />
          </mxGeometry>
        </mxCell>
        <mxCell id="XhCxBN9-n2aiEUbVuih6-70" value="" style="endArrow=none;html=1;rounded=0;entryX=0.5;entryY=1;entryDx=0;entryDy=0;" parent="XhCxBN9-n2aiEUbVuih6-67" target="XhCxBN9-n2aiEUbVuih6-71" edge="1">
          <mxGeometry width="50" height="50" relative="1" as="geometry">
            <mxPoint x="45" y="90" as="sourcePoint" />
            <mxPoint x="45" y="30" as="targetPoint" />
          </mxGeometry>
        </mxCell>
        <mxCell id="XhCxBN9-n2aiEUbVuih6-71" value="October 2023" style="text;html=1;strokeColor=none;fillColor=none;align=center;verticalAlign=middle;whiteSpace=wrap;rounded=0;" parent="XhCxBN9-n2aiEUbVuih6-67" vertex="1">
          <mxGeometry x="-2.5" y="50" width="95" height="30" as="geometry" />
        </mxCell>
        <mxCell id="XhCxBN9-n2aiEUbVuih6-72" value="" style="endArrow=none;html=1;rounded=0;strokeColor=default;dashed=1;" parent="1" edge="1">
          <mxGeometry width="50" height="50" relative="1" as="geometry">
            <mxPoint x="584" y="110" as="sourcePoint" />
            <mxPoint x="644" y="110" as="targetPoint" />
          </mxGeometry>
        </mxCell>
        <mxCell id="XhCxBN9-n2aiEUbVuih6-73" value="" style="endArrow=block;html=1;rounded=0;strokeColor=default;endFill=1;" parent="1" edge="1">
          <mxGeometry width="50" height="50" relative="1" as="geometry">
            <mxPoint x="642" y="110" as="sourcePoint" />
            <mxPoint x="804" y="110" as="targetPoint" />
          </mxGeometry>
        </mxCell>
        <mxCell id="XhCxBN9-n2aiEUbVuih6-74" value="" style="group" parent="1" vertex="1" connectable="0">
          <mxGeometry x="694" y="110" width="100" height="100" as="geometry" />
        </mxCell>
        <mxCell id="XhCxBN9-n2aiEUbVuih6-75" value="" style="endArrow=none;html=1;rounded=0;startArrow=none;" parent="XhCxBN9-n2aiEUbVuih6-74" source="XhCxBN9-n2aiEUbVuih6-78" edge="1">
          <mxGeometry width="50" height="50" relative="1" as="geometry">
            <mxPoint x="40" y="70" as="sourcePoint" />
            <mxPoint x="40" as="targetPoint" />
          </mxGeometry>
        </mxCell>
        <mxCell id="XhCxBN9-n2aiEUbVuih6-76" value="Publication of 1.1 Recommendations" style="text;html=1;strokeColor=none;fillColor=none;align=center;verticalAlign=middle;whiteSpace=wrap;rounded=0;" parent="XhCxBN9-n2aiEUbVuih6-74" vertex="1">
          <mxGeometry y="70" width="80" height="30" as="geometry" />
        </mxCell>
        <mxCell id="XhCxBN9-n2aiEUbVuih6-77" value="" style="endArrow=none;html=1;rounded=0;" parent="XhCxBN9-n2aiEUbVuih6-74" target="XhCxBN9-n2aiEUbVuih6-78" edge="1">
          <mxGeometry width="50" height="50" relative="1" as="geometry">
            <mxPoint x="40" y="70" as="sourcePoint" />
            <mxPoint x="40" as="targetPoint" />
          </mxGeometry>
        </mxCell>
        <mxCell id="XhCxBN9-n2aiEUbVuih6-78" value="December 2023" style="text;html=1;strokeColor=none;fillColor=none;align=center;verticalAlign=middle;whiteSpace=wrap;rounded=0;" parent="XhCxBN9-n2aiEUbVuih6-74" vertex="1">
          <mxGeometry x="-5" y="10" width="90" height="30" as="geometry" />
        </mxCell>
      </root>
    </mxGraphModel>
  </diagram>
</mxfile>
